M48
; DRILL file {KiCad 7.0.1} date Tue Feb 13 15:17:11 2024
; FORMAT={-:-/ absolute / inch / decimal}
; #@! TF.CreationDate,2024-02-13T15:17:11-03:00
; #@! TF.GenerationSoftware,Kicad,Pcbnew,7.0.1
; #@! TF.FileFunction,Plated,1,2,PTH
FMAT,2
INCH
; #@! TA.AperFunction,Plated,PTH,ViaDrill
T1C0.0157
; #@! TA.AperFunction,Plated,PTH,ViaDrill
T2C0.0197
; #@! TA.AperFunction,Plated,PTH,ComponentDrill
T3C0.0315
; #@! TA.AperFunction,Plated,PTH,ComponentDrill
T4C0.0350
; #@! TA.AperFunction,Plated,PTH,ComponentDrill
T5C0.0354
; #@! TA.AperFunction,Plated,PTH,ComponentDrill
T6C0.0394
; #@! TA.AperFunction,Plated,PTH,ComponentDrill
T7C0.0472
; #@! TA.AperFunction,Plated,PTH,ComponentDrill
T8C0.0550
; #@! TA.AperFunction,Plated,PTH,ComponentDrill
T9C0.0591
; #@! TA.AperFunction,Plated,PTH,ComponentDrill
T10C0.0709
; #@! TA.AperFunction,Plated,PTH,ComponentDrill
T11C0.0787
; #@! TA.AperFunction,Plated,PTH,ComponentDrill
T12C0.1260
%
G90
G05
T1
X3.5433Y-3.9528
X3.6614Y-3.2874
X4.1142Y-4.3661
X4.1339Y-4.6575
X4.1732Y-4.0732
X4.2126Y-3.1358
X4.252Y-4.075
X4.311Y-4.3661
X4.315Y-2.0394
X4.3327Y-2.8622
X4.4193Y-2.3376
X4.4961Y-3.187
X4.5531Y-3.187
X4.5697Y-3.3386
X4.5787Y-3.1516
X4.5787Y-3.2224
X4.6063Y-3.187
X4.6063Y-3.5217
X4.6339Y-3.1516
X4.6339Y-3.2224
X4.6594Y-3.187
X4.7008Y-2.5374
X4.7008Y-2.5866
X4.7008Y-2.6358
X4.7008Y-2.7323
X4.7008Y-2.7795
X4.7008Y-2.8307
X4.7047Y-3.5217
X4.7165Y-3.1516
X4.7165Y-3.187
X4.7165Y-3.2224
X4.7449Y-3.0531
X4.7449Y-3.0886
X4.7449Y-3.124
X4.747Y-2.6841
X4.7728Y-3.1516
X4.7728Y-3.187
X4.7728Y-3.2224
X4.7874Y-2.6839
X4.8122Y-3.3386
X4.8287Y-2.6841
X4.8337Y-3.1024
X4.8337Y-3.2726
X4.874Y-2.5374
X4.874Y-2.5866
X4.874Y-2.6358
X4.874Y-2.7323
X4.874Y-2.7795
X4.874Y-2.8307
X5.0453Y-3.4886
X5.0472Y-2.8622
X5.063Y-4.4547
X5.0984Y-3.4882
X5.0984Y-3.5246
X5.0984Y-3.561
X5.0984Y-3.5984
X5.1102Y-3.6417
X5.1516Y-3.6417
X5.1929Y-3.6417
X5.1939Y-3.3317
X5.1939Y-3.3848
X5.1939Y-3.438
X5.2382Y-3.7461
X5.2382Y-3.8051
X5.249Y-3.3002
X5.249Y-3.4705
X5.3268Y-2.8622
X5.3346Y-4.8228
X5.3661Y-3.1339
X5.4567Y-3.0394
X5.5551Y-2.2392
X5.6191Y-2.2972
X5.685Y-3.2402
X5.7195Y-2.2972
X5.7825Y-2.2411
X5.8055Y-3.8264
X5.9055Y-2.4803
X5.9055Y-3.8268
X6.0051Y-3.8264
X6.0236Y-3.3858
X6.0285Y-2.2402
X6.0915Y-2.2972
X6.126Y-3.1181
X6.126Y-3.2677
X6.1909Y-2.2972
X6.2559Y-2.2421
X6.2697Y-3.6614
X6.29Y-2.0476
X6.3022Y-2.7635
X6.3307Y-2.7283
X6.3634Y-2.0472
X6.3701Y-2.7283
X6.374Y-3.8091
X6.4846Y-3.6988
X6.4846Y-3.8469
X6.5016Y-2.0472
X6.5122Y-3.2185
X6.5224Y-3.1258
X6.5819Y-3.2471
X6.5861Y-3.1258
X6.626Y-3.0472
X6.6299Y-2.6969
X6.6329Y-3.4951
X6.6591Y-2.5957
X6.6594Y-2.748
X6.7323Y-3.4331
X6.8055Y-3.5957
X6.8386Y-3.5343
X6.9108Y-3.185
X6.9213Y-2.6476
X6.9331Y-2.2472
X6.9331Y-3.6102
X6.9819Y-2.4976
X7.0315Y-3.6811
X7.1752Y-3.3091
X7.1811Y-3.7874
X7.2113Y-3.7606
X7.2925Y-4.02
X7.3012Y-3.1965
X7.3024Y-2.998
X7.3028Y-3.0972
X7.3031Y-2.1476
X7.3346Y-2.0472
X7.3346Y-2.1476
X7.3346Y-2.248
X7.3346Y-2.3465
X7.3346Y-2.4488
X7.3346Y-2.5472
X7.3346Y-2.6457
X7.3346Y-2.9488
X7.3346Y-3.0472
X7.3346Y-3.1457
X7.3346Y-3.248
X7.3664Y-3.9503
X7.4374Y-3.1457
X7.5Y-2.0394
X7.5Y-4.3661
X7.5512Y-4.1539
X7.5984Y-3.1378
X7.6457Y-4.1539
X7.6772Y-4.6614
X7.6969Y-4.3661
X7.9783Y-3.2205
X7.9783Y-3.3524
X8.2677Y-3.9567
T2
X3.563Y-5.2756
X4.1339Y-5.4724
X5.0098Y-2.6339
X5.2854Y-2.6339
X5.2953Y-4.0748
X5.2953Y-5.3346
X6.5157Y-4.0748
X6.5157Y-5.3346
X6.7323Y-2.4409
X7.6772Y-5.4724
X8.248Y-5.2756
T3
X4.5866Y-2.0748
X4.6654Y-2.0748
X4.7441Y-2.0748
T4
X3.437Y-2.5
X3.437Y-2.5984
X3.437Y-2.6969
X3.6811Y-2.9409
X3.7795Y-2.9409
X3.878Y-2.9409
X7.689Y-2.5
X7.689Y-2.5984
X7.689Y-2.6969
X7.9331Y-2.9409
X8.0315Y-2.9409
X8.1299Y-2.9409
T5
X3.6535Y-2.1949
X3.6535Y-2.372
X3.9055Y-2.1949
X3.9055Y-2.372
X7.9055Y-2.1949
X7.9055Y-2.372
X8.1575Y-2.1949
X8.1575Y-2.372
T6
X3.4449Y-3.3858
X3.5433Y-3.3858
X3.6417Y-3.3858
X4.1142Y-3.3858
X4.1142Y-3.9567
X4.2126Y-3.9567
X4.311Y-3.3858
X4.311Y-3.9567
X5.1315Y-4.3547
X5.1315Y-4.4547
X5.1315Y-4.5547
X5.1315Y-4.6547
X5.1315Y-4.7547
X5.1315Y-4.8547
X5.1315Y-4.9547
X5.1315Y-5.0547
X5.6193Y-2.0835
X5.7193Y-2.0835
X5.7555Y-3.139
X5.7555Y-3.239
X5.8555Y-3.139
X5.8555Y-3.239
X5.9555Y-3.139
X5.9555Y-3.239
X6.0555Y-3.139
X6.0555Y-3.239
X6.0917Y-2.0835
X6.1917Y-2.0835
X6.4323Y-2.0472
X6.4323Y-2.1472
X6.4323Y-2.2472
X6.4323Y-2.3472
X6.4323Y-2.4472
X6.4323Y-2.5472
X6.4323Y-2.6472
X6.4323Y-2.7472
X6.4323Y-2.8472
X6.4323Y-2.9472
X6.4323Y-3.0472
X6.4323Y-3.1472
X6.4323Y-3.2472
X6.4323Y-3.3472
X6.5323Y-3.3472
X6.6323Y-3.3472
X6.7323Y-2.6472
X6.7323Y-2.7472
X6.7323Y-2.8472
X6.7323Y-2.9472
X6.7323Y-3.0472
X6.7323Y-3.1472
X6.7323Y-3.2472
X6.7323Y-3.3472
X6.8323Y-2.6472
X6.8323Y-2.7472
X6.8323Y-2.8472
X6.8323Y-2.9472
X6.8323Y-3.0472
X6.8323Y-3.1472
X6.8323Y-3.2472
X6.8323Y-3.3472
X6.9323Y-2.1472
X6.9323Y-2.3472
X6.9323Y-2.4472
X6.9323Y-2.5472
X6.9323Y-3.3472
X7.0323Y-2.0472
X7.0323Y-2.1472
X7.0323Y-2.2472
X7.0323Y-2.3472
X7.0323Y-2.4472
X7.0323Y-2.5472
X7.0323Y-2.6472
X7.0323Y-2.7472
X7.0323Y-2.8472
X7.0323Y-2.9472
X7.0323Y-3.0472
X7.0323Y-3.1472
X7.0323Y-3.2472
X7.0323Y-3.3472
X7.5Y-3.3858
X7.5Y-3.9567
X7.5984Y-3.9567
X7.6969Y-3.3858
X7.6969Y-3.9567
X8.1693Y-3.3858
X8.2677Y-3.3858
X8.3661Y-3.3858
T7
X5.0098Y-2.1142
X5.1476Y-2.1142
X5.2854Y-2.1142
X5.4232Y-2.1142
T8
X3.5295Y-2.4016
X3.5295Y-2.7953
X4.0295Y-2.4016
X4.0295Y-2.7953
X7.7815Y-2.4016
X7.7815Y-2.7953
X8.2815Y-2.4016
X8.2815Y-2.7953
T9
X3.3933Y-4.3488
X3.6433Y-4.2488
X3.9839Y-5.0575
X4.2339Y-4.9575
X4.5039Y-2.0748
X4.6521Y-5.2756
X4.7997Y-3.8976
X4.7997Y-5.2756
X4.8268Y-2.0748
X7.0143Y-5.2756
X7.1619Y-3.8976
X7.1619Y-5.2756
X7.5272Y-5.0575
X7.7772Y-4.9575
X8.1177Y-4.3488
X8.3677Y-4.2488
T11
X4.7259Y-4.1929
X4.7259Y-5.0787
X7.0881Y-4.1929
X7.0881Y-5.0787
T12
X3.3858Y-2.2047
X3.3858Y-5.2756
X5.128Y-4.0748
X5.128Y-5.3346
X6.6831Y-4.0748
X6.6831Y-5.3346
X8.4252Y-2.2047
X8.4252Y-5.2756
T9
G00X3.9921Y-3.687
M15
G01X3.9921Y-3.6358
M16
G05
G00X4.4331Y-3.687
M15
G01X4.4331Y-3.6358
M16
G05
G00X7.378Y-3.687
M15
G01X7.378Y-3.6358
M16
G05
G00X7.8189Y-3.687
M15
G01X7.8189Y-3.6358
M16
G05
T10
G00X3.3701Y-3.6555
M15
G01X3.3701Y-3.6673
M16
G05
G00X3.7165Y-3.6555
M15
G01X3.7165Y-3.6673
M16
G05
G00X8.0945Y-3.6555
M15
G01X8.0945Y-3.6673
M16
G05
G00X8.4409Y-3.6555
M15
G01X8.4409Y-3.6673
M16
G05
T0
M30
