G04 This is an RS-274x file exported by *
G04 gerbv version 2.6A *
G04 More information is available about gerbv at *
G04 http://gerbv.geda-project.org/ *
G04 --End of header info--*
%MOIN*%
%FSLAX34Y34*%
%IPPOS*%
G04 --Define apertures--*
%ADD10C,0.0098*%
%ADD11C,0.0591*%
%AMMACRO12*
4,1,4,0.017717,-0.010335,0.017717,0.010335,-0.017717,0.010335,-0.017717,-0.010335,0.017717,-0.010335,0.000000*
1,1,0.019685,0.017717,-0.010335*
1,1,0.019685,0.017717,0.010335*
1,1,0.019685,-0.017717,0.010335*
1,1,0.019685,-0.017717,-0.010335*
20,1,0.019685,0.017717,-0.010335,0.017717,0.010335,0.000000*
20,1,0.019685,0.017717,0.010335,-0.017717,0.010335,0.000000*
20,1,0.019685,-0.017717,0.010335,-0.017717,-0.010335,0.000000*
20,1,0.019685,-0.017717,-0.010335,0.017717,-0.010335,0.000000*
%
%ADD12MACRO12*%
%AMMACRO13*
4,1,4,0.018701,-0.009843,0.018701,0.009843,-0.018701,0.009843,-0.018701,-0.009843,0.018701,-0.009843,0.000000*
1,1,0.019685,0.018701,-0.009843*
1,1,0.019685,0.018701,0.009843*
1,1,0.019685,-0.018701,0.009843*
1,1,0.019685,-0.018701,-0.009843*
20,1,0.019685,0.018701,-0.009843,0.018701,0.009843,0.000000*
20,1,0.019685,0.018701,0.009843,-0.018701,0.009843,0.000000*
20,1,0.019685,-0.018701,0.009843,-0.018701,-0.009843,0.000000*
20,1,0.019685,-0.018701,-0.009843,0.018701,-0.009843,0.000000*
%
%ADD13MACRO13*%
%AMMACRO14*
4,1,4,0.010335,0.017717,-0.010335,0.017717,-0.010335,-0.017717,0.010335,-0.017717,0.010335,0.017717,0.000000*
1,1,0.019685,0.010335,0.017717*
1,1,0.019685,-0.010335,0.017717*
1,1,0.019685,-0.010335,-0.017717*
1,1,0.019685,0.010335,-0.017717*
20,1,0.019685,0.010335,0.017717,-0.010335,0.017717,0.000000*
20,1,0.019685,-0.010335,0.017717,-0.010335,-0.017717,0.000000*
20,1,0.019685,-0.010335,-0.017717,0.010335,-0.017717,0.000000*
20,1,0.019685,0.010335,-0.017717,0.010335,0.017717,0.000000*
%
%ADD14MACRO14*%
%AMMACRO15*
4,1,4,-0.009843,-0.018701,0.009843,-0.018701,0.009843,0.018701,-0.009843,0.018701,-0.009843,-0.018701,0.000000*
1,1,0.019685,-0.009843,-0.018701*
1,1,0.019685,0.009843,-0.018701*
1,1,0.019685,0.009843,0.018701*
1,1,0.019685,-0.009843,0.018701*
20,1,0.019685,-0.009843,-0.018701,0.009843,-0.018701,0.000000*
20,1,0.019685,0.009843,-0.018701,0.009843,0.018701,0.000000*
20,1,0.019685,0.009843,0.018701,-0.009843,0.018701,0.000000*
20,1,0.019685,-0.009843,0.018701,-0.009843,-0.018701,0.000000*
%
%ADD15MACRO15*%
%AMMACRO16*
4,1,4,-0.014764,-0.024606,0.014764,-0.024606,0.014764,0.024606,-0.014764,0.024606,-0.014764,-0.024606,0.000000*
1,1,0.019685,-0.014764,-0.024606*
1,1,0.019685,0.014764,-0.024606*
1,1,0.019685,0.014764,0.024606*
1,1,0.019685,-0.014764,0.024606*
20,1,0.019685,-0.014764,-0.024606,0.014764,-0.024606,0.000000*
20,1,0.019685,0.014764,-0.024606,0.014764,0.024606,0.000000*
20,1,0.019685,0.014764,0.024606,-0.014764,0.024606,0.000000*
20,1,0.019685,-0.014764,0.024606,-0.014764,-0.024606,0.000000*
%
%ADD16MACRO16*%
%ADD17C,0.0945*%
%ADD18R,0.0945X0.0945*%
%AMMACRO19*
4,1,4,-0.014764,-0.042323,0.014764,-0.042323,0.014764,0.042323,-0.014764,0.042323,-0.014764,-0.042323,0.000000*
1,1,0.019685,-0.014764,-0.042323*
1,1,0.019685,0.014764,-0.042323*
1,1,0.019685,0.014764,0.042323*
1,1,0.019685,-0.014764,0.042323*
20,1,0.019685,-0.014764,-0.042323,0.014764,-0.042323,0.000000*
20,1,0.019685,0.014764,-0.042323,0.014764,0.042323,0.000000*
20,1,0.019685,0.014764,0.042323,-0.014764,0.042323,0.000000*
20,1,0.019685,-0.014764,0.042323,-0.014764,-0.042323,0.000000*
%
%ADD19MACRO19*%
%AMMACRO20*
4,1,4,-0.017717,0.010335,-0.017717,-0.010335,0.017717,-0.010335,0.017717,0.010335,-0.017717,0.010335,0.000000*
1,1,0.019685,-0.017717,0.010335*
1,1,0.019685,-0.017717,-0.010335*
1,1,0.019685,0.017717,-0.010335*
1,1,0.019685,0.017717,0.010335*
20,1,0.019685,-0.017717,0.010335,-0.017717,-0.010335,0.000000*
20,1,0.019685,-0.017717,-0.010335,0.017717,-0.010335,0.000000*
20,1,0.019685,0.017717,-0.010335,0.017717,0.010335,0.000000*
20,1,0.019685,0.017717,0.010335,-0.017717,0.010335,0.000000*
%
%ADD20MACRO20*%
%AMMACRO21*
4,1,4,-0.031004,-0.040354,0.031004,-0.040354,0.031004,0.040354,-0.031004,0.040354,-0.031004,-0.040354,0.000000*
1,1,0.019685,-0.031004,-0.040354*
1,1,0.019685,0.031004,-0.040354*
1,1,0.019685,0.031004,0.040354*
1,1,0.019685,-0.031004,0.040354*
20,1,0.019685,-0.031004,-0.040354,0.031004,-0.040354,0.000000*
20,1,0.019685,0.031004,-0.040354,0.031004,0.040354,0.000000*
20,1,0.019685,0.031004,0.040354,-0.031004,0.040354,0.000000*
20,1,0.019685,-0.031004,0.040354,-0.031004,-0.040354,0.000000*
%
%ADD21MACRO21*%
%AMMACRO22*
4,1,4,-0.010335,-0.017717,0.010335,-0.017717,0.010335,0.017717,-0.010335,0.017717,-0.010335,-0.017717,0.000000*
1,1,0.019685,-0.010335,-0.017717*
1,1,0.019685,0.010335,-0.017717*
1,1,0.019685,0.010335,0.017717*
1,1,0.019685,-0.010335,0.017717*
20,1,0.019685,-0.010335,-0.017717,0.010335,-0.017717,0.000000*
20,1,0.019685,0.010335,-0.017717,0.010335,0.017717,0.000000*
20,1,0.019685,0.010335,0.017717,-0.010335,0.017717,0.000000*
20,1,0.019685,-0.010335,0.017717,-0.010335,-0.017717,0.000000*
%
%ADD22MACRO22*%
%ADD23O,0.0787X0.0787*%
%ADD24C,0.0787*%
%ADD25R,0.0787X0.0787*%
%ADD26R,0.0787X0.1260*%
%ADD27R,0.0591X0.0591*%
%AMMACRO28*
4,1,4,0.009843,0.018701,-0.009843,0.018701,-0.009843,-0.018701,0.009843,-0.018701,0.009843,0.018701,0.000000*
1,1,0.019685,0.009843,0.018701*
1,1,0.019685,-0.009843,0.018701*
1,1,0.019685,-0.009843,-0.018701*
1,1,0.019685,0.009843,-0.018701*
20,1,0.019685,0.009843,0.018701,-0.009843,0.018701,0.000000*
20,1,0.019685,-0.009843,0.018701,-0.009843,-0.018701,0.000000*
20,1,0.019685,-0.009843,-0.018701,0.009843,-0.018701,0.000000*
20,1,0.019685,0.009843,-0.018701,0.009843,0.018701,0.000000*
%
%ADD28MACRO28*%
%AMMACRO29*
4,1,4,-0.018701,0.009843,-0.018701,-0.009843,0.018701,-0.009843,0.018701,0.009843,-0.018701,0.009843,0.000000*
1,1,0.019685,-0.018701,0.009843*
1,1,0.019685,-0.018701,-0.009843*
1,1,0.019685,0.018701,-0.009843*
1,1,0.019685,0.018701,0.009843*
20,1,0.019685,-0.018701,0.009843,-0.018701,-0.009843,0.000000*
20,1,0.019685,-0.018701,-0.009843,0.018701,-0.009843,0.000000*
20,1,0.019685,0.018701,-0.009843,0.018701,0.009843,0.000000*
20,1,0.019685,0.018701,0.009843,-0.018701,0.009843,0.000000*
%
%ADD29MACRO29*%
%ADD30R,0.0316X0.0593*%
%ADD31R,0.1379X0.1029*%
%ADD32R,0.0669X0.0669*%
%ADD33C,0.0669*%
%ADD34C,0.1417*%
%ADD35C,0.2205*%
%ADD36C,0.2362*%
%ADD37C,0.0984*%
%ADD38R,0.0984X0.0984*%
%ADD39R,0.0701X0.0283*%
%AMMACRO40*
4,1,4,-0.025591,0.039370,-0.025591,-0.039370,0.025591,-0.039370,0.025591,0.039370,-0.025591,0.039370,0.000000*
1,1,0.019685,-0.025591,0.039370*
1,1,0.019685,-0.025591,-0.039370*
1,1,0.019685,0.025591,-0.039370*
1,1,0.019685,0.025591,0.039370*
20,1,0.019685,-0.025591,0.039370,-0.025591,-0.039370,0.000000*
20,1,0.019685,-0.025591,-0.039370,0.025591,-0.039370,0.000000*
20,1,0.019685,0.025591,-0.039370,0.025591,0.039370,0.000000*
20,1,0.019685,0.025591,0.039370,-0.025591,0.039370,0.000000*
%
%ADD40MACRO40*%
%ADD41C,0.0780*%
%AMMACRO42*
4,1,4,-0.035000,-0.035000,0.035000,-0.035000,0.035000,0.035000,-0.035000,0.035000,-0.035000,-0.035000,0.000000*
1,1,0.008031,-0.035000,-0.035000*
1,1,0.008031,0.035000,-0.035000*
1,1,0.008031,0.035000,0.035000*
1,1,0.008031,-0.035000,0.035000*
20,1,0.008031,-0.035000,-0.035000,0.035000,-0.035000,0.000000*
20,1,0.008031,0.035000,-0.035000,0.035000,0.035000,0.000000*
20,1,0.008031,0.035000,0.035000,-0.035000,0.035000,0.000000*
20,1,0.008031,-0.035000,0.035000,-0.035000,-0.035000,0.000000*
%
%ADD42MACRO42*%
%AMMACRO43*
4,1,4,-0.045000,-0.045000,0.045000,-0.045000,0.045000,0.045000,-0.045000,0.045000,-0.045000,-0.045000,0.000000*
1,1,0.008031,-0.045000,-0.045000*
1,1,0.008031,0.045000,-0.045000*
1,1,0.008031,0.045000,0.045000*
1,1,0.008031,-0.045000,0.045000*
20,1,0.008031,-0.045000,-0.045000,0.045000,-0.045000,0.000000*
20,1,0.008031,0.045000,-0.045000,0.045000,0.045000,0.000000*
20,1,0.008031,0.045000,0.045000,-0.045000,0.045000,0.000000*
20,1,0.008031,-0.045000,0.045000,-0.045000,-0.045000,0.000000*
%
%ADD43MACRO43*%
%AMMACRO44*
4,1,4,-0.023622,0.015748,-0.023622,-0.015748,0.023622,-0.015748,0.023622,0.015748,-0.023622,0.015748,0.000000*
1,1,0.019685,-0.023622,0.015748*
1,1,0.019685,-0.023622,-0.015748*
1,1,0.019685,0.023622,-0.015748*
1,1,0.019685,0.023622,0.015748*
20,1,0.019685,-0.023622,0.015748,-0.023622,-0.015748,0.000000*
20,1,0.019685,-0.023622,-0.015748,0.023622,-0.015748,0.000000*
20,1,0.019685,0.023622,-0.015748,0.023622,0.015748,0.000000*
20,1,0.019685,0.023622,0.015748,-0.023622,0.015748,0.000000*
%
%ADD44MACRO44*%
%AMMACRO45*
4,1,4,0.017963,-0.009596,0.017963,0.009596,-0.017963,0.009596,-0.017963,-0.009596,0.017963,-0.009596,0.000000*
1,1,0.019193,0.017963,-0.009596*
1,1,0.019193,0.017963,0.009596*
1,1,0.019193,-0.017963,0.009596*
1,1,0.019193,-0.017963,-0.009596*
20,1,0.019193,0.017963,-0.009596,0.017963,0.009596,0.000000*
20,1,0.019193,0.017963,0.009596,-0.017963,0.009596,0.000000*
20,1,0.019193,-0.017963,0.009596,-0.017963,-0.009596,0.000000*
20,1,0.019193,-0.017963,-0.009596,0.017963,-0.009596,0.000000*
%
%ADD45MACRO45*%
%AMMACRO46*
4,1,4,-0.017963,0.009596,-0.017963,-0.009596,0.017963,-0.009596,0.017963,0.009596,-0.017963,0.009596,0.000000*
1,1,0.019193,-0.017963,0.009596*
1,1,0.019193,-0.017963,-0.009596*
1,1,0.019193,0.017963,-0.009596*
1,1,0.019193,0.017963,0.009596*
20,1,0.019193,-0.017963,0.009596,-0.017963,-0.009596,0.000000*
20,1,0.019193,-0.017963,-0.009596,0.017963,-0.009596,0.000000*
20,1,0.019193,0.017963,-0.009596,0.017963,0.009596,0.000000*
20,1,0.019193,0.017963,0.009596,-0.017963,0.009596,0.000000*
%
%ADD46MACRO46*%
%ADD47C,0.0886*%
%ADD48R,0.0886X0.0886*%
%ADD49R,0.1181X0.1181*%
%AMMACRO50*
4,1,4,-0.016240,-0.036417,0.016240,-0.036417,0.016240,0.036417,-0.016240,0.036417,-0.016240,-0.036417,0.000000*
1,1,0.019685,-0.016240,-0.036417*
1,1,0.019685,0.016240,-0.036417*
1,1,0.019685,0.016240,0.036417*
1,1,0.019685,-0.016240,0.036417*
20,1,0.019685,-0.016240,-0.036417,0.016240,-0.036417,0.000000*
20,1,0.019685,0.016240,-0.036417,0.016240,0.036417,0.000000*
20,1,0.019685,0.016240,0.036417,-0.016240,0.036417,0.000000*
20,1,0.019685,-0.016240,0.036417,-0.016240,-0.036417,0.000000*
%
%ADD50MACRO50*%
%AMMACRO51*
4,1,4,-0.017717,-0.016732,0.017717,-0.016732,0.017717,0.016732,-0.017717,0.016732,-0.017717,-0.016732,0.000000*
1,1,0.019685,-0.017717,-0.016732*
1,1,0.019685,0.017717,-0.016732*
1,1,0.019685,0.017717,0.016732*
1,1,0.019685,-0.017717,0.016732*
20,1,0.019685,-0.017717,-0.016732,0.017717,-0.016732,0.000000*
20,1,0.019685,0.017717,-0.016732,0.017717,0.016732,0.000000*
20,1,0.019685,0.017717,0.016732,-0.017717,0.016732,0.000000*
20,1,0.019685,-0.017717,0.016732,-0.017717,-0.016732,0.000000*
%
%ADD51MACRO51*%
%ADD52O,0.0709X0.0709*%
%ADD53C,0.0709*%
%ADD54R,0.0709X0.0709*%
%ADD55R,0.0433X0.0236*%
%ADD56O,0.0669X0.0669*%
%ADD57O,0.0866X0.1378*%
%ADD58O,0.0591X0.0984*%
%ADD59R,0.0591X0.0984*%
%AMMACRO60*
4,1,4,-0.016732,0.017717,-0.016732,-0.017717,0.016732,-0.017717,0.016732,0.017717,-0.016732,0.017717,0.000000*
1,1,0.019685,-0.016732,0.017717*
1,1,0.019685,-0.016732,-0.017717*
1,1,0.019685,0.016732,-0.017717*
1,1,0.019685,0.016732,0.017717*
20,1,0.019685,-0.016732,0.017717,-0.016732,-0.017717,0.000000*
20,1,0.019685,-0.016732,-0.017717,0.016732,-0.017717,0.000000*
20,1,0.019685,0.016732,-0.017717,0.016732,0.017717,0.000000*
20,1,0.019685,0.016732,0.017717,-0.016732,0.017717,0.000000*
%
%ADD60MACRO60*%
%AMMACRO61*
4,1,4,0.012795,0.043307,-0.012795,0.043307,-0.012795,-0.043307,0.012795,-0.043307,0.012795,0.043307,0.000000*
1,1,0.019685,0.012795,0.043307*
1,1,0.019685,-0.012795,0.043307*
1,1,0.019685,-0.012795,-0.043307*
1,1,0.019685,0.012795,-0.043307*
20,1,0.019685,0.012795,0.043307,-0.012795,0.043307,0.000000*
20,1,0.019685,-0.012795,0.043307,-0.012795,-0.043307,0.000000*
20,1,0.019685,-0.012795,-0.043307,0.012795,-0.043307,0.000000*
20,1,0.019685,0.012795,-0.043307,0.012795,0.043307,0.000000*
%
%ADD61MACRO61*%
%AMMACRO62*
4,1,4,-0.023130,-0.005906,0.023130,-0.005906,0.023130,0.005906,-0.023130,0.005906,-0.023130,-0.005906,0.000000*
1,1,0.011811,-0.023130,-0.005906*
1,1,0.011811,0.023130,-0.005906*
1,1,0.011811,0.023130,0.005906*
1,1,0.011811,-0.023130,0.005906*
20,1,0.011811,-0.023130,-0.005906,0.023130,-0.005906,0.000000*
20,1,0.011811,0.023130,-0.005906,0.023130,0.005906,0.000000*
20,1,0.011811,0.023130,0.005906,-0.023130,0.005906,0.000000*
20,1,0.011811,-0.023130,0.005906,-0.023130,-0.005906,0.000000*
%
%ADD62MACRO62*%
%ADD63R,0.0433X0.0591*%
%AMMACRO64*
4,1,4,0.017717,0.016732,-0.017717,0.016732,-0.017717,-0.016732,0.017717,-0.016732,0.017717,0.016732,0.000000*
1,1,0.019685,0.017717,0.016732*
1,1,0.019685,-0.017717,0.016732*
1,1,0.019685,-0.017717,-0.016732*
1,1,0.019685,0.017717,-0.016732*
20,1,0.019685,0.017717,0.016732,-0.017717,0.016732,0.000000*
20,1,0.019685,-0.017717,0.016732,-0.017717,-0.016732,0.000000*
20,1,0.019685,-0.017717,-0.016732,0.017717,-0.016732,0.000000*
20,1,0.019685,0.017717,-0.016732,0.017717,0.016732,0.000000*
%
%ADD64MACRO64*%
%AMMACRO65*
4,1,4,-0.008612,-0.015010,0.008612,-0.015010,0.008612,0.015010,-0.008612,0.015010,-0.008612,-0.015010,0.000000*
1,1,0.017224,-0.008612,-0.015010*
1,1,0.017224,0.008612,-0.015010*
1,1,0.017224,0.008612,0.015010*
1,1,0.017224,-0.008612,0.015010*
20,1,0.017224,-0.008612,-0.015010,0.008612,-0.015010,0.000000*
20,1,0.017224,0.008612,-0.015010,0.008612,0.015010,0.000000*
20,1,0.017224,0.008612,0.015010,-0.008612,0.015010,0.000000*
20,1,0.017224,-0.008612,0.015010,-0.008612,-0.015010,0.000000*
%
%ADD65MACRO65*%
G04 --Start main section--*
G54D11*
G01X0037795Y-025984D03*
G54D12*
G01X0076969Y-041540D03*
G01X0076969Y-040822D03*
G54D13*
G01X0035433Y-040925D03*
G01X0035433Y-040177D03*
G01X0051516Y-037835D03*
G01X0051516Y-037087D03*
G54D14*
G01X0042446Y-021260D03*
G01X0041727Y-021260D03*
G54D11*
G01X0080315Y-025984D03*
G54D15*
G01X0071752Y-024472D03*
G01X0072500Y-024472D03*
G54D16*
G01X0054488Y-033848D03*
G01X0055591Y-033848D03*
G54D17*
G01X0052854Y-021142D03*
G54D18*
G01X0054232Y-021142D03*
G54D19*
G01X0048366Y-030030D03*
G01X0049469Y-030030D03*
G54D15*
G01X0071752Y-032472D03*
G01X0072500Y-032472D03*
G54D13*
G01X0076772Y-048012D03*
G01X0076772Y-047264D03*
G54D15*
G01X0071752Y-029472D03*
G01X0072500Y-029472D03*
G54D12*
G01X0077835Y-041540D03*
G01X0077835Y-040822D03*
G54D20*
G01X0066732Y-037731D03*
G01X0066732Y-038450D03*
G54D21*
G01X0045428Y-025866D03*
G01X0047879Y-025866D03*
G54D22*
G01X0075664Y-021260D03*
G01X0076383Y-021260D03*
G54D23*
G01X0041142Y-039567D03*
G54D24*
G01X0043110Y-039567D03*
G54D25*
G01X0042126Y-039567D03*
G54D26*
G01X0039921Y-036614D03*
G01X0044331Y-036614D03*
G54D11*
G01X0041142Y-033858D03*
G54D27*
G01X0043110Y-033858D03*
G54D20*
G01X0081177Y-040192D03*
G01X0081177Y-040910D03*
G54D14*
G01X0072485Y-028472D03*
G01X0071767Y-028472D03*
G54D17*
G01X0050098Y-021142D03*
G54D18*
G01X0051476Y-021142D03*
G54D28*
G01X0076398Y-020394D03*
G01X0075650Y-020394D03*
G54D29*
G01X0061917Y-021673D03*
G01X0061917Y-022421D03*
G01X0041142Y-042264D03*
G01X0041142Y-043012D03*
G54D11*
G01X0075984Y-036614D03*
G54D30*
G01X0045313Y-032853D03*
G01X0045813Y-032853D03*
G01X0046313Y-032853D03*
G01X0046813Y-032853D03*
G01X0046813Y-030887D03*
G01X0046313Y-030887D03*
G01X0045813Y-030887D03*
G01X0045313Y-030887D03*
G54D31*
G01X0046063Y-031870D03*
G54D32*
G01X0057555Y-032390D03*
G54D33*
G01X0057555Y-031390D03*
G01X0058555Y-032390D03*
G01X0058555Y-031390D03*
G01X0059555Y-032390D03*
G01X0059555Y-031390D03*
G01X0060555Y-032390D03*
G01X0060555Y-031390D03*
G54D32*
G01X0056193Y-020835D03*
G01X0057193Y-020835D03*
G01X0060917Y-020835D03*
G01X0061917Y-020835D03*
G54D13*
G01X0042126Y-032717D03*
G01X0042126Y-031969D03*
G54D11*
G01X0047244Y-045866D03*
G54D34*
G01X0033858Y-052756D03*
G54D35*
G01X0033858Y-052756D03*
G54D20*
G01X0044488Y-031511D03*
G01X0044488Y-032229D03*
G54D36*
G01X0082677Y-044488D03*
G54D37*
G01X0081177Y-043488D03*
G54D38*
G01X0083677Y-042488D03*
G54D29*
G01X0076969Y-042264D03*
G01X0076969Y-043012D03*
G54D39*
G01X0047575Y-024510D03*
G01X0047575Y-024010D03*
G01X0047575Y-023510D03*
G01X0047575Y-023010D03*
G01X0045732Y-023010D03*
G01X0045732Y-023510D03*
G01X0045732Y-024010D03*
G01X0045732Y-024510D03*
G54D12*
G01X0063287Y-036973D03*
G01X0063287Y-036255D03*
G54D40*
G01X0050098Y-023996D03*
G01X0050098Y-025571D03*
G54D20*
G01X0066732Y-036255D03*
G01X0066732Y-036973D03*
G54D21*
G01X0045428Y-027815D03*
G01X0047879Y-027815D03*
G54D29*
G01X0043110Y-042264D03*
G01X0043110Y-043012D03*
G54D15*
G01X0041713Y-020394D03*
G01X0042461Y-020394D03*
G54D20*
G01X0051476Y-028263D03*
G01X0051476Y-028981D03*
G54D41*
G01X0079055Y-021949D03*
G01X0081575Y-021949D03*
G54D42*
G01X0079055Y-023720D03*
G01X0081575Y-023720D03*
G01X0079331Y-029409D03*
G54D41*
G01X0080315Y-029409D03*
G01X0081299Y-029409D03*
G54D43*
G01X0077815Y-024016D03*
G01X0077815Y-027953D03*
G01X0082815Y-027953D03*
G01X0082815Y-024016D03*
G54D42*
G01X0076890Y-025000D03*
G54D41*
G01X0076890Y-025984D03*
G01X0076890Y-026969D03*
G54D29*
G01X0046063Y-033858D03*
G01X0046063Y-034606D03*
G54D44*
G01X0070323Y-034744D03*
G01X0070323Y-036122D03*
G54D45*
G01X0051476Y-024464D03*
G01X0051476Y-023725D03*
G54D20*
G01X0041142Y-032003D03*
G01X0041142Y-032721D03*
G54D46*
G01X0065846Y-036245D03*
G01X0065846Y-036983D03*
G01X0051476Y-026875D03*
G01X0051476Y-027613D03*
G54D29*
G01X0056193Y-021673D03*
G01X0056193Y-022421D03*
G54D46*
G01X0044193Y-026875D03*
G01X0044193Y-027613D03*
G54D12*
G01X0075000Y-041540D03*
G01X0075000Y-040822D03*
G54D14*
G01X0072485Y-027472D03*
G01X0071767Y-027472D03*
G54D20*
G01X0054232Y-028253D03*
G01X0054232Y-028971D03*
G54D47*
G01X0071619Y-052756D03*
G01X0070143Y-052756D03*
G54D48*
G01X0071619Y-038976D03*
G54D49*
G01X0070881Y-050787D03*
G01X0070881Y-041929D03*
G54D36*
G01X0035433Y-044488D03*
G54D37*
G01X0033933Y-043488D03*
G54D38*
G01X0036433Y-042488D03*
G54D50*
G01X0052466Y-030020D03*
G01X0053676Y-030020D03*
G54D20*
G01X0044193Y-028263D03*
G01X0044193Y-028981D03*
G54D12*
G01X0043976Y-041540D03*
G01X0043976Y-040822D03*
G54D51*
G01X0071594Y-020472D03*
G01X0072657Y-020472D03*
G54D29*
G01X0047047Y-033858D03*
G01X0047047Y-034606D03*
G01X0075000Y-042264D03*
G01X0075000Y-043012D03*
G54D12*
G01X0040276Y-041540D03*
G01X0040276Y-040822D03*
G54D52*
G01X0083661Y-033858D03*
G54D53*
G01X0082677Y-033858D03*
G54D54*
G01X0081693Y-033858D03*
G54D26*
G01X0084409Y-036614D03*
G01X0080945Y-036614D03*
G54D20*
G01X0075000Y-032003D03*
G01X0075000Y-032721D03*
G54D55*
G01X0051516Y-035984D03*
G01X0051516Y-035610D03*
G01X0051516Y-035236D03*
G01X0050453Y-035236D03*
G01X0050453Y-035610D03*
G01X0050453Y-035984D03*
G54D12*
G01X0043110Y-041540D03*
G01X0043110Y-040822D03*
G54D32*
G01X0064323Y-020472D03*
G54D56*
G01X0064323Y-021472D03*
G01X0064323Y-022472D03*
G01X0064323Y-023472D03*
G01X0064323Y-024472D03*
G01X0064323Y-025472D03*
G01X0064323Y-026472D03*
G01X0064323Y-027472D03*
G01X0064323Y-028472D03*
G01X0064323Y-029472D03*
G01X0064323Y-030472D03*
G01X0064323Y-031472D03*
G01X0064323Y-032472D03*
G01X0064323Y-033472D03*
G01X0065323Y-033472D03*
G01X0066323Y-033472D03*
G54D32*
G01X0067323Y-033472D03*
G54D56*
G01X0068323Y-033472D03*
G01X0069323Y-033472D03*
G01X0070323Y-033472D03*
G01X0070323Y-032472D03*
G01X0070323Y-031472D03*
G01X0070323Y-030472D03*
G01X0070323Y-029472D03*
G01X0070323Y-028472D03*
G01X0070323Y-027472D03*
G01X0070323Y-026472D03*
G01X0070323Y-025472D03*
G01X0070323Y-024472D03*
G01X0070323Y-023472D03*
G01X0070323Y-022472D03*
G54D32*
G01X0070323Y-021472D03*
G54D33*
G01X0070323Y-020472D03*
G54D56*
G01X0069323Y-021472D03*
G01X0069323Y-023472D03*
G01X0069323Y-024472D03*
G01X0069323Y-025472D03*
G01X0068323Y-026472D03*
G01X0068323Y-027472D03*
G01X0068323Y-028472D03*
G01X0068323Y-029472D03*
G01X0068323Y-030472D03*
G01X0068323Y-031472D03*
G01X0068323Y-032472D03*
G01X0067323Y-032472D03*
G01X0067323Y-031472D03*
G01X0067323Y-030472D03*
G01X0067323Y-029472D03*
G01X0067323Y-028472D03*
G54D32*
G01X0067323Y-027472D03*
G54D56*
G01X0067323Y-026472D03*
G54D57*
G01X0045039Y-020748D03*
G01X0048268Y-020748D03*
G54D58*
G01X0045866Y-020748D03*
G54D59*
G01X0046654Y-020748D03*
G54D58*
G01X0047441Y-020748D03*
G54D45*
G01X0054232Y-024464D03*
G01X0054232Y-023725D03*
G54D11*
G01X0042126Y-036614D03*
G54D36*
G01X0076772Y-051575D03*
G54D37*
G01X0075272Y-050575D03*
G54D38*
G01X0077772Y-049575D03*
G54D13*
G01X0075984Y-032736D03*
G01X0075984Y-031988D03*
G54D20*
G01X0057193Y-021688D03*
G01X0057193Y-022406D03*
G54D19*
G01X0052500Y-035610D03*
G01X0053602Y-035610D03*
G54D29*
G01X0069323Y-034665D03*
G01X0069323Y-035413D03*
G54D13*
G01X0041339Y-048012D03*
G01X0041339Y-047264D03*
G54D22*
G01X0050625Y-034232D03*
G01X0051344Y-034232D03*
G54D47*
G01X0047997Y-052756D03*
G01X0046521Y-052756D03*
G54D48*
G01X0047997Y-038976D03*
G54D49*
G01X0047259Y-050787D03*
G01X0047259Y-041929D03*
G54D60*
G01X0053346Y-046516D03*
G01X0053346Y-047579D03*
G54D34*
G01X0084252Y-052756D03*
G54D35*
G01X0084252Y-052756D03*
G54D23*
G01X0075000Y-039567D03*
G54D24*
G01X0076969Y-039567D03*
G54D25*
G01X0075984Y-039567D03*
G54D26*
G01X0073780Y-036614D03*
G01X0078189Y-036614D03*
G54D11*
G01X0075000Y-033858D03*
G54D27*
G01X0076969Y-033858D03*
G54D52*
G01X0036417Y-033858D03*
G54D53*
G01X0035433Y-033858D03*
G54D54*
G01X0034449Y-033858D03*
G54D26*
G01X0037165Y-036614D03*
G01X0033701Y-036614D03*
G54D11*
G01X0070866Y-045866D03*
G54D61*
G01X0049498Y-031870D03*
G01X0048337Y-031870D03*
G54D12*
G01X0044193Y-024454D03*
G01X0044193Y-023735D03*
G54D62*
G01X0064198Y-037717D03*
G01X0064198Y-038465D03*
G01X0064936Y-038091D03*
G54D15*
G01X0071752Y-025472D03*
G01X0072500Y-025472D03*
G54D12*
G01X0041142Y-041540D03*
G01X0041142Y-040822D03*
G54D35*
G01X0051280Y-040748D03*
G01X0051280Y-053346D03*
G54D56*
G01X0051315Y-043547D03*
G54D32*
G01X0051315Y-044547D03*
G54D56*
G01X0051315Y-045547D03*
G01X0051315Y-046547D03*
G01X0051315Y-047547D03*
G01X0051315Y-048547D03*
G01X0051315Y-049547D03*
G01X0051315Y-050547D03*
G54D35*
G01X0066831Y-040748D03*
G01X0066831Y-053346D03*
G54D34*
G01X0051280Y-040748D03*
G01X0051280Y-053346D03*
G01X0066831Y-040748D03*
G01X0066831Y-053346D03*
G54D11*
G01X0035433Y-036614D03*
G54D61*
G01X0053652Y-033848D03*
G01X0052490Y-033848D03*
G54D22*
G01X0052825Y-038051D03*
G01X0053543Y-038051D03*
G54D12*
G01X0074134Y-041540D03*
G01X0074134Y-040822D03*
G54D22*
G01X0046294Y-022224D03*
G01X0047013Y-022224D03*
G54D11*
G01X0082677Y-036614D03*
G54D13*
G01X0082677Y-040925D03*
G01X0082677Y-040177D03*
G54D63*
G01X0060555Y-035551D03*
G01X0059555Y-035551D03*
G01X0058555Y-035551D03*
G01X0057555Y-035551D03*
G01X0057555Y-039055D03*
G01X0058555Y-039055D03*
G01X0059555Y-039055D03*
G01X0060555Y-039055D03*
G54D12*
G01X0054232Y-025832D03*
G01X0054232Y-025113D03*
G54D34*
G01X0084252Y-022047D03*
G54D35*
G01X0084252Y-022047D03*
G54D15*
G01X0071752Y-030472D03*
G01X0072500Y-030472D03*
G54D34*
G01X0033858Y-022047D03*
G54D35*
G01X0033858Y-022047D03*
G54D15*
G01X0071752Y-026472D03*
G01X0072500Y-026472D03*
G54D41*
G01X0036535Y-021949D03*
G01X0039055Y-021949D03*
G54D42*
G01X0036535Y-023720D03*
G01X0039055Y-023720D03*
G01X0036811Y-029409D03*
G54D41*
G01X0037795Y-029409D03*
G01X0038780Y-029409D03*
G54D43*
G01X0035295Y-024016D03*
G01X0035295Y-027953D03*
G01X0040295Y-027953D03*
G01X0040295Y-024016D03*
G54D42*
G01X0034370Y-025000D03*
G54D41*
G01X0034370Y-025984D03*
G01X0034370Y-026969D03*
G54D64*
G01X0038327Y-032874D03*
G01X0037264Y-032874D03*
G54D46*
G01X0065846Y-037721D03*
G01X0065846Y-038460D03*
G54D12*
G01X0044193Y-023017D03*
G01X0044193Y-022298D03*
G54D62*
G01X0064198Y-036240D03*
G01X0064198Y-036988D03*
G01X0064936Y-036614D03*
G54D36*
G01X0041339Y-051575D03*
G54D37*
G01X0039839Y-050575D03*
G54D38*
G01X0042339Y-049575D03*
G54D15*
G01X0071752Y-031472D03*
G01X0072500Y-031472D03*
G01X0071752Y-023472D03*
G01X0072500Y-023472D03*
G54D40*
G01X0052854Y-023996D03*
G01X0052854Y-025571D03*
G54D12*
G01X0051476Y-025832D03*
G01X0051476Y-025113D03*
G54D22*
G01X0048558Y-034429D03*
G01X0049277Y-034429D03*
G54D51*
G01X0071594Y-022472D03*
G01X0072657Y-022472D03*
G54D20*
G01X0033933Y-040192D03*
G01X0033933Y-040910D03*
G01X0060917Y-021688D03*
G01X0060917Y-022406D03*
G54D64*
G01X0080846Y-032874D03*
G01X0079783Y-032874D03*
G54D65*
G01X0071708Y-021472D03*
G01X0072544Y-021472D03*
G54D20*
G01X0075272Y-047279D03*
G01X0075272Y-047997D03*
G54D51*
G01X0058524Y-033858D03*
G01X0059587Y-033858D03*
G54D16*
G01X0050433Y-030030D03*
G01X0051535Y-030030D03*
G54D20*
G01X0039839Y-047279D03*
G01X0039839Y-047997D03*
G54D12*
G01X0063287Y-038450D03*
G01X0063287Y-037731D03*
G54D14*
G01X0049277Y-033386D03*
G01X0048558Y-033386D03*
G54D15*
G01X0045817Y-029793D03*
G01X0046565Y-029793D03*
G54D46*
G01X0054232Y-026865D03*
G01X0054232Y-027603D03*
G54D14*
G01X0053543Y-036870D03*
G01X0052825Y-036870D03*
M02*
