%TF.GenerationSoftware,KiCad,Pcbnew,7.0.1*%
%TF.CreationDate,2024-02-13T15:17:08-03:00*%
%TF.ProjectId,Everything_Controller_V2.0,45766572-7974-4686-996e-675f436f6e74,R0*%
%TF.SameCoordinates,Original*%
%TF.FileFunction,Paste,Top*%
%TF.FilePolarity,Positive*%
%FSLAX46Y46*%
G04 Gerber Fmt 4.6, Leading zero omitted, Abs format (unit mm)*
G04 Created by KiCad (PCBNEW 7.0.1) date 2024-02-13 15:17:08*
%MOMM*%
%LPD*%
G01*
G04 APERTURE LIST*
G04 Aperture macros list*
%AMRoundRect*
0 Rectangle with rounded corners*
0 $1 Rounding radius*
0 $2 $3 $4 $5 $6 $7 $8 $9 X,Y pos of 4 corners*
0 Add a 4 corners polygon primitive as box body*
4,1,4,$2,$3,$4,$5,$6,$7,$8,$9,$2,$3,0*
0 Add four circle primitives for the rounded corners*
1,1,$1+$1,$2,$3*
1,1,$1+$1,$4,$5*
1,1,$1+$1,$6,$7*
1,1,$1+$1,$8,$9*
0 Add four rect primitives between the rounded corners*
20,1,$1+$1,$2,$3,$4,$5,0*
20,1,$1+$1,$4,$5,$6,$7,0*
20,1,$1+$1,$6,$7,$8,$9,0*
20,1,$1+$1,$8,$9,$2,$3,0*%
G04 Aperture macros list end*
%ADD10RoundRect,0.250000X0.450000X-0.262500X0.450000X0.262500X-0.450000X0.262500X-0.450000X-0.262500X0*%
%ADD11RoundRect,0.250000X0.475000X-0.250000X0.475000X0.250000X-0.475000X0.250000X-0.475000X-0.250000X0*%
%ADD12RoundRect,0.250000X0.262500X0.450000X-0.262500X0.450000X-0.262500X-0.450000X0.262500X-0.450000X0*%
%ADD13RoundRect,0.250000X-0.250000X-0.475000X0.250000X-0.475000X0.250000X0.475000X-0.250000X0.475000X0*%
%ADD14RoundRect,0.250000X-0.375000X-0.625000X0.375000X-0.625000X0.375000X0.625000X-0.375000X0.625000X0*%
%ADD15RoundRect,0.250000X-0.375000X-1.075000X0.375000X-1.075000X0.375000X1.075000X-0.375000X1.075000X0*%
%ADD16RoundRect,0.250000X-0.450000X0.262500X-0.450000X-0.262500X0.450000X-0.262500X0.450000X0.262500X0*%
%ADD17RoundRect,0.250000X-0.787500X-1.025000X0.787500X-1.025000X0.787500X1.025000X-0.787500X1.025000X0*%
%ADD18RoundRect,0.250000X-0.262500X-0.450000X0.262500X-0.450000X0.262500X0.450000X-0.262500X0.450000X0*%
%ADD19RoundRect,0.250000X0.250000X0.475000X-0.250000X0.475000X-0.250000X-0.475000X0.250000X-0.475000X0*%
%ADD20RoundRect,0.250000X-0.475000X0.250000X-0.475000X-0.250000X0.475000X-0.250000X0.475000X0.250000X0*%
%ADD21R,0.802000X1.505000*%
%ADD22R,3.502000X2.613000*%
%ADD23R,1.780000X0.720000*%
%ADD24RoundRect,0.250000X-0.650000X1.000000X-0.650000X-1.000000X0.650000X-1.000000X0.650000X1.000000X0*%
%ADD25RoundRect,0.250000X-0.600000X0.400000X-0.600000X-0.400000X0.600000X-0.400000X0.600000X0.400000X0*%
%ADD26RoundRect,0.243750X0.456250X-0.243750X0.456250X0.243750X-0.456250X0.243750X-0.456250X-0.243750X0*%
%ADD27RoundRect,0.243750X-0.456250X0.243750X-0.456250X-0.243750X0.456250X-0.243750X0.456250X0.243750X0*%
%ADD28RoundRect,0.250000X-0.412500X-0.925000X0.412500X-0.925000X0.412500X0.925000X-0.412500X0.925000X0*%
%ADD29RoundRect,0.250000X-0.450000X-0.425000X0.450000X-0.425000X0.450000X0.425000X-0.450000X0.425000X0*%
%ADD30R,1.100000X0.600000*%
%ADD31RoundRect,0.250000X-0.425000X0.450000X-0.425000X-0.450000X0.425000X-0.450000X0.425000X0.450000X0*%
%ADD32RoundRect,0.250000X0.325000X1.100000X-0.325000X1.100000X-0.325000X-1.100000X0.325000X-1.100000X0*%
%ADD33RoundRect,0.150000X-0.587500X-0.150000X0.587500X-0.150000X0.587500X0.150000X-0.587500X0.150000X0*%
%ADD34R,1.100000X1.500000*%
%ADD35RoundRect,0.250000X0.450000X0.425000X-0.450000X0.425000X-0.450000X-0.425000X0.450000X-0.425000X0*%
%ADD36RoundRect,0.218750X-0.218750X-0.381250X0.218750X-0.381250X0.218750X0.381250X-0.218750X0.381250X0*%
G04 APERTURE END LIST*
D10*
%TO.C,R22*%
X195500000Y-105512500D03*
X195500000Y-103687500D03*
%TD*%
D11*
%TO.C,C15*%
X90000000Y-103950000D03*
X90000000Y-102050000D03*
%TD*%
%TO.C,C8*%
X130850000Y-96100000D03*
X130850000Y-94200000D03*
%TD*%
D12*
%TO.C,R28*%
X107812500Y-54000000D03*
X105987500Y-54000000D03*
%TD*%
D13*
%TO.C,C31*%
X182250000Y-62160000D03*
X184150000Y-62160000D03*
%TD*%
D14*
%TO.C,F2*%
X138400000Y-85975000D03*
X141200000Y-85975000D03*
%TD*%
D15*
%TO.C,L1*%
X122850000Y-76275000D03*
X125650000Y-76275000D03*
%TD*%
D13*
%TO.C,C21*%
X182250000Y-82480000D03*
X184150000Y-82480000D03*
%TD*%
D11*
%TO.C,C16*%
X195000000Y-121950000D03*
X195000000Y-120050000D03*
%TD*%
D13*
%TO.C,C19*%
X182250000Y-74860000D03*
X184150000Y-74860000D03*
%TD*%
D10*
%TO.C,R20*%
X197700000Y-105512500D03*
X197700000Y-103687500D03*
%TD*%
D16*
%TO.C,R34*%
X169500000Y-95837500D03*
X169500000Y-97662500D03*
%TD*%
D17*
%TO.C,C2*%
X115387500Y-65700000D03*
X121612500Y-65700000D03*
%TD*%
D18*
%TO.C,R29*%
X192187500Y-54000000D03*
X194012500Y-54000000D03*
%TD*%
D16*
%TO.C,R14*%
X206190000Y-102087500D03*
X206190000Y-103912500D03*
%TD*%
D12*
%TO.C,R36*%
X184112500Y-72320000D03*
X182287500Y-72320000D03*
%TD*%
D19*
%TO.C,C33*%
X194050000Y-51800000D03*
X192150000Y-51800000D03*
%TD*%
D20*
%TO.C,C37*%
X157270000Y-55050000D03*
X157270000Y-56950000D03*
%TD*%
%TO.C,C25*%
X104500000Y-107350000D03*
X104500000Y-109250000D03*
%TD*%
D21*
%TO.C,U1*%
X115095000Y-83447500D03*
X116365000Y-83447500D03*
X117635000Y-83447500D03*
X118905000Y-83447500D03*
X118905000Y-78452500D03*
X117635000Y-78452500D03*
X116365000Y-78452500D03*
X115095000Y-78452500D03*
D22*
X117000000Y-80950000D03*
%TD*%
D11*
%TO.C,C27*%
X107000000Y-83100000D03*
X107000000Y-81200000D03*
%TD*%
D16*
%TO.C,R6*%
X113000000Y-80037500D03*
X113000000Y-81862500D03*
%TD*%
D20*
%TO.C,C23*%
X195500000Y-107350000D03*
X195500000Y-109250000D03*
%TD*%
D23*
%TO.C,Q2*%
X120840000Y-62255000D03*
X120840000Y-60985000D03*
X120840000Y-59715000D03*
X120840000Y-58445000D03*
X116160000Y-58445000D03*
X116160000Y-59715000D03*
X116160000Y-60985000D03*
X116160000Y-62255000D03*
%TD*%
D10*
%TO.C,R31*%
X160750000Y-93912500D03*
X160750000Y-92087500D03*
%TD*%
D24*
%TO.C,D4*%
X127250000Y-60950000D03*
X127250000Y-64950000D03*
%TD*%
D16*
%TO.C,R30*%
X169500000Y-92087500D03*
X169500000Y-93912500D03*
%TD*%
D17*
%TO.C,C3*%
X115387500Y-70650000D03*
X121612500Y-70650000D03*
%TD*%
D20*
%TO.C,C26*%
X109500000Y-107350000D03*
X109500000Y-109250000D03*
%TD*%
D13*
%TO.C,C30*%
X105950000Y-51800000D03*
X107850000Y-51800000D03*
%TD*%
D16*
%TO.C,R13*%
X130750000Y-71787500D03*
X130750000Y-73612500D03*
%TD*%
D20*
%TO.C,C5*%
X117000000Y-86000000D03*
X117000000Y-87900000D03*
%TD*%
D25*
%TO.C,D5*%
X178620000Y-88250000D03*
X178620000Y-91750000D03*
%TD*%
D26*
%TO.C,D3*%
X130750000Y-62137500D03*
X130750000Y-60262500D03*
%TD*%
D16*
%TO.C,R27*%
X104500000Y-81287500D03*
X104500000Y-83112500D03*
%TD*%
D27*
%TO.C,D9*%
X167250000Y-92062500D03*
X167250000Y-93937500D03*
%TD*%
%TO.C,D8*%
X130750000Y-68262500D03*
X130750000Y-70137500D03*
%TD*%
D20*
%TO.C,C38*%
X142730000Y-55050000D03*
X142730000Y-56950000D03*
%TD*%
D27*
%TO.C,D6*%
X112250000Y-68262500D03*
X112250000Y-70137500D03*
%TD*%
D10*
%TO.C,R21*%
X190500000Y-105512500D03*
X190500000Y-103687500D03*
%TD*%
D12*
%TO.C,R35*%
X184112500Y-69780000D03*
X182287500Y-69780000D03*
%TD*%
D16*
%TO.C,R12*%
X137750000Y-71762500D03*
X137750000Y-73587500D03*
%TD*%
D28*
%TO.C,C36*%
X133262500Y-76250000D03*
X136337500Y-76250000D03*
%TD*%
D16*
%TO.C,R5*%
X112250000Y-71787500D03*
X112250000Y-73612500D03*
%TD*%
D10*
%TO.C,R25*%
X111700000Y-105512500D03*
X111700000Y-103687500D03*
%TD*%
D29*
%TO.C,C10*%
X181850000Y-52000000D03*
X184550000Y-52000000D03*
%TD*%
D20*
%TO.C,C4*%
X119500000Y-86000000D03*
X119500000Y-87900000D03*
%TD*%
%TO.C,C24*%
X190500000Y-107350000D03*
X190500000Y-109250000D03*
%TD*%
D10*
%TO.C,R26*%
X102300000Y-105512500D03*
X102300000Y-103687500D03*
%TD*%
D16*
%TO.C,R18*%
X190500000Y-81287500D03*
X190500000Y-83112500D03*
%TD*%
D30*
%TO.C,U2*%
X130850000Y-91400000D03*
X130850000Y-90450000D03*
X130850000Y-89500000D03*
X128150000Y-89500000D03*
X128150000Y-90450000D03*
X128150000Y-91400000D03*
%TD*%
D10*
%TO.C,R24*%
X109500000Y-105512500D03*
X109500000Y-103687500D03*
%TD*%
D26*
%TO.C,D2*%
X137750000Y-62137500D03*
X137750000Y-60262500D03*
%TD*%
D11*
%TO.C,C22*%
X193000000Y-83150000D03*
X193000000Y-81250000D03*
%TD*%
D16*
%TO.C,R37*%
X145270000Y-55087500D03*
X145270000Y-56912500D03*
%TD*%
D15*
%TO.C,L2*%
X133350000Y-90450000D03*
X136150000Y-90450000D03*
%TD*%
D20*
%TO.C,C1*%
X176080000Y-88050000D03*
X176080000Y-89950000D03*
%TD*%
D11*
%TO.C,C17*%
X105000000Y-121950000D03*
X105000000Y-120050000D03*
%TD*%
D18*
%TO.C,R11*%
X128587500Y-86950000D03*
X130412500Y-86950000D03*
%TD*%
D31*
%TO.C,C12*%
X135500000Y-118150000D03*
X135500000Y-120850000D03*
%TD*%
D32*
%TO.C,C7*%
X125725000Y-80950000D03*
X122775000Y-80950000D03*
%TD*%
D10*
%TO.C,R3*%
X112250000Y-62112500D03*
X112250000Y-60287500D03*
%TD*%
D33*
%TO.C,Q3*%
X163062500Y-95800000D03*
X163062500Y-97700000D03*
X164937500Y-96750000D03*
%TD*%
D13*
%TO.C,C29*%
X182250000Y-64700000D03*
X184150000Y-64700000D03*
%TD*%
D10*
%TO.C,R23*%
X104500000Y-105512500D03*
X104500000Y-103687500D03*
%TD*%
D32*
%TO.C,C9*%
X136275000Y-85975000D03*
X133325000Y-85975000D03*
%TD*%
D18*
%TO.C,R10*%
X134175000Y-96650000D03*
X136000000Y-96650000D03*
%TD*%
D10*
%TO.C,R19*%
X188300000Y-105512500D03*
X188300000Y-103687500D03*
%TD*%
D18*
%TO.C,R32*%
X117587500Y-56450000D03*
X119412500Y-56450000D03*
%TD*%
D11*
%TO.C,C14*%
X210000000Y-103950000D03*
X210000000Y-102050000D03*
%TD*%
D34*
%TO.C,SW8*%
X153810000Y-90300000D03*
X151270000Y-90300000D03*
X148730000Y-90300000D03*
X146190000Y-90300000D03*
X146190000Y-99200000D03*
X148730000Y-99200000D03*
X151270000Y-99200000D03*
X153810000Y-99200000D03*
%TD*%
D10*
%TO.C,R1*%
X137750000Y-65612500D03*
X137750000Y-63787500D03*
%TD*%
D13*
%TO.C,C20*%
X182250000Y-77400000D03*
X184150000Y-77400000D03*
%TD*%
%TO.C,C28*%
X182250000Y-67240000D03*
X184150000Y-67240000D03*
%TD*%
D35*
%TO.C,C34*%
X97350000Y-83500000D03*
X94650000Y-83500000D03*
%TD*%
D27*
%TO.C,D10*%
X167250000Y-95812500D03*
X167250000Y-97687500D03*
%TD*%
D10*
%TO.C,R4*%
X112250000Y-58462500D03*
X112250000Y-56637500D03*
%TD*%
D33*
%TO.C,Q1*%
X163062500Y-92050000D03*
X163062500Y-93950000D03*
X164937500Y-93000000D03*
%TD*%
D13*
%TO.C,C18*%
X182250000Y-79940000D03*
X184150000Y-79940000D03*
%TD*%
%TO.C,C32*%
X182250000Y-59620000D03*
X184150000Y-59620000D03*
%TD*%
D24*
%TO.C,D1*%
X134250000Y-60950000D03*
X134250000Y-64950000D03*
%TD*%
D10*
%TO.C,R2*%
X130750000Y-65612500D03*
X130750000Y-63787500D03*
%TD*%
D18*
%TO.C,R8*%
X123337500Y-87450000D03*
X125162500Y-87450000D03*
%TD*%
D29*
%TO.C,C11*%
X181850000Y-57080000D03*
X184550000Y-57080000D03*
%TD*%
D16*
%TO.C,R15*%
X86190000Y-102087500D03*
X86190000Y-103912500D03*
%TD*%
%TO.C,R38*%
X154730000Y-55087500D03*
X154730000Y-56912500D03*
%TD*%
D35*
%TO.C,C35*%
X205350000Y-83500000D03*
X202650000Y-83500000D03*
%TD*%
D36*
%TO.C,FB1*%
X182137500Y-54540000D03*
X184262500Y-54540000D03*
%TD*%
D16*
%TO.C,R16*%
X191190000Y-120087500D03*
X191190000Y-121912500D03*
%TD*%
D29*
%TO.C,C13*%
X148650000Y-86000000D03*
X151350000Y-86000000D03*
%TD*%
D14*
%TO.C,F1*%
X128100000Y-76275000D03*
X130900000Y-76275000D03*
%TD*%
D16*
%TO.C,R17*%
X101190000Y-120087500D03*
X101190000Y-121912500D03*
%TD*%
D10*
%TO.C,R33*%
X160750000Y-97662500D03*
X160750000Y-95837500D03*
%TD*%
D12*
%TO.C,R7*%
X125162500Y-84800000D03*
X123337500Y-84800000D03*
%TD*%
D13*
%TO.C,C6*%
X116375000Y-75675000D03*
X118275000Y-75675000D03*
%TD*%
D27*
%TO.C,D7*%
X137750000Y-68237500D03*
X137750000Y-70112500D03*
%TD*%
D12*
%TO.C,R9*%
X136000000Y-93650000D03*
X134175000Y-93650000D03*
%TD*%
M02*
